<?xml version="1.0" encoding="utf-8"?>
<!-- Generator: Adobe Illustrator 26.2.1, SVG Export Plug-In . SVG Version: 6.00 Build 0)  -->
<svg version="1.1" id="Camada_1" xmlns="http://www.w3.org/2000/svg" xmlns:xlink="http://www.w3.org/1999/xlink" x="0px" y="0px"
	 viewBox="0 0 1080 1080" style="enable-background:new 0 0 1080 1080;" xml:space="preserve">
<style type="text/css">
	.st0{fill-rule:evenodd;clip-rule:evenodd;}
</style>
<path class="st0" d="M973.67,242.39c-3.77-2.66-7.71-5.1-11.37-7.9c-9.08-6.92-17.38-14.67-23.95-24.09
	c-0.66-0.95-1.03-2.76-0.56-3.7c0.87-1.74,2.42-0.69,3.66,0c0.93,0.52,1.8,1.14,2.73,1.66c12.72,7.06,25.44,14.14,38.2,21.13
	c2.08,1.14,4.36,1.91,7.63,3.32c-0.91-8.21-0.39-15.46-6.06-20.89c-3.84-3.68-7.83-7.26-12.09-10.43
	c-22.38-16.66-46.98-29.25-73.09-38.9c-23.79-8.8-48.2-14.87-73.77-14.47c-18.1,0.28-35.83-2.1-53.11-7.16
	c-18.9-5.53-37.61-11.69-56.34-17.8c-15.56-5.07-31.27-9.5-47.58-11.21c-19.92-2.09-39.74-0.29-59.47,2.51
	c-16.91,2.4-33.31,7.05-49.65,11.9c-46.46,13.8-93.67,17.81-141.73,10.84c-26.21-3.8-52.07-9.25-77.55-16.42
	c-18.78-5.28-37.41-11.1-56.1-16.74c-7.04-2.12-8.54-1.41-10.95,5.66c-2.9,8.49-4.47,17.28-3.92,26.19
	c2.06,33.51,17.06,59.71,45.65,77.5c20.59,12.81,43.22,15.13,66.77,11.01c1.09-0.19,2.22-0.14,4.49-0.26
	c-1.62,1.63-2.28,2.68-3.24,3.21c-3.25,1.79-6.48,3.75-9.95,5.02c-16.61,6.08-33.56,7.18-50.78,2.86
	c-5.24-1.31-10.29-1.93-15.61,0.21c-75.47,30.44-134.51,79.88-174.33,151.25c-24.47,43.86-39.31,90.74-41.41,141.24
	c-0.55,13.17,0.01,26.29,3.41,39.13c0.47,1.76,1.18,3.45,1.78,5.17c5.75-16.2,11.64-31.76,19.84-46.36
	c9-16.05,23.67-34.83,30.19-38.73c0,0.16,0.06,0.36-0.01,0.5c-1.2,2.57-2.42,5.13-3.62,7.7c-16.59,35.3-27.49,72.27-32,111.03
	c-3.11,26.75-2.93,53.51,0.72,80.25c4.4,32.29,13.4,63.14,28.35,92.15c10.82,21,24.27,40.08,41.75,56.15c1,0.92,2.11,1.71,4.26,3.43
	c-9.61-32.64-11.31-64.37-4.06-96.44c0.77,0.88,1.1,1.81,1.28,2.76c5.55,30.89,14.26,60.79,27.89,89.14
	c24.81,51.58,62.33,90.65,114.14,115.57c27.75,13.35,57.11,21.33,87.46,25.89c4.76,0.71,9.56,1.13,14.34,1.69
	c-12.95-7.6-24.06-16.83-33.88-27.71c-10.63-11.78-21.54-29.75-22.45-37.31c15.74,15.45,34.12,26.41,54.05,34.83
	c47.38,20.03,96.94,28.15,148.2,26.66c20.85-0.61,41.39-3.42,61.34-9.74c13.65-4.32,26.49-10.23,37.6-19.46
	c2.24-1.86,4.23-4.02,6.66-6.34c-7.06-1.3-13.37-2.09-19.48-3.63c-52.96-13.35-91.24-45.05-114.23-94.28
	c-18.43-39.47-22.62-80.76-9.85-122.98c9.21-30.44,26.29-56.08,48.95-78.16c1.31-1.27,2.58-2.58,4.31-4.32
	c-59.37,6.8-109.98-11.11-153.77-49.17c-49.55-43.07-65.14-103.17-61.88-148.31c0.77,5.59,1.36,10.32,2.1,15.03
	c0.77,4.91,1.52,9.83,2.59,14.68c15.24,69.16,55.57,116.51,122.66,140.2c30.99,10.94,63.04,13.71,95.61,9.96
	c14.66-1.69,28.93-5.09,42.77-10.55c25.92-10.22,52.91-13.48,80.55-10.27c33.11,3.83,62.63,16.39,88.6,37.32
	c18.18,14.65,38.86,20.74,62.14,18.04c58.87-6.83,91.01-74.62,58.9-124.44c-2.25-3.5-3.76-7.08-4.58-11.17
	c-3.63-18.25-9.5-35.66-20.13-51.17c-0.9-1.31-1.74-2.72-2.89-3.78c-1.12-1.03-2.43-0.64-2.97,0.8c-0.36,0.96-0.25,2.09-0.37,3.14
	c-0.65,5.99-1,12.04-2.03,17.97c-1.64,9.43-3.76,18.78-5.62,28.18c-1.41,7.11,1.01,10.75,8.1,12.3c2.15,0.47,4.33,0.82,6.49,1.22
	c-6.36,3.51-12.51,3.25-17.69,1.03c-2.28-11.52-3.84-22.07-6.53-32.33c-3.25-12.41-9.63-23.25-19.3-31.93
	c-3.54-3.18-5.61-2.56-6.48,2.08c-0.78,4.18-1.13,8.44-1.74,12.66c-2.26,15.48-5.39,30.76-10.69,45.52
	c-0.94,2.61-2.19,5.11-3.34,7.77c-2.39-0.47-4.32-0.74-6.19-1.22c-8.08-2.06-16.18-4.04-24.21-6.29
	c-20.18-5.67-40.51-10.43-61.44-12.64c-12.5-1.32-24.91-3.74-37.27-6.13c-7.85-1.52-15.36-4.32-22.27-8.52
	c-9.12-5.54-14.12-13.74-15.75-24.14c-0.17-1.07,0.1-2.21,0.17-3.41c0.8,0.25,1.28,0.25,1.41,0.46c0.93,1.51,1.83,3.03,2.66,4.6
	c5.36,10.1,13.3,17.39,23.73,22.07c10.13,4.54,20.85,6.93,31.71,8.83c1,0.17,2.12-0.37,3.18-0.58c0.09-0.35,0.18-0.71,0.27-1.06
	c-1.39-0.97-2.79-1.92-4.16-2.91c-5.02-3.65-10.27-7.03-14.98-11.05c-7.6-6.48-12.35-14.85-12.68-24.94
	c-0.26-8.12-0.19-16.41,1.1-24.4c2.68-16.59,10-31.35,20.08-44.75c11.25-14.96,25.16-26.96,40.82-37.05c1.52-0.98,3.66-1.47,4-3.8
	c-3.81-1.21-6.85-0.96-17.67,1.64c-28.38,6.82-51.28,21.99-68.44,45.83c-0.23-0.27-0.46-0.55-0.7-0.82
	c0.06-0.51,0.01-1.06,0.21-1.51c1.02-2.26,2.01-4.55,3.2-6.73c17.95-32.88,46.63-49.01,83.02-52.97
	c29.51-3.21,58.43,1.61,87.34,6.49c2.03,0.34,3.14,1.27,3.3,3.44c0.26,3.72,0.86,7.41,1.04,11.13c0.71,14.95-0.24,29.81-2.22,44.64
	c-0.74,5.52,1.49,7.21,6.39,4.67c5.96-3.09,11.95-6.35,17.25-10.43c13.02-10.02,21.29-23.63,27.44-38.64
	c0.93-2.27,1.83-4.55,2.78-6.91c7.37,0.74,14.44,1.44,21.51,2.15c0.01,0.1,0.01,0.21,0.02,0.32c-4.36,0.47-8.72,0.94-13.38,1.44
	c2.66,12.58,2.39,24.94,0.99,37.32c-0.26,2.29-0.73,4.56-0.9,6.86c-0.23,3.16,1.23,4.17,4.25,3.05c0.99-0.37,1.93-0.9,2.88-1.39
	c9.13-4.67,15.95-11.75,21.2-20.43c4.53-7.51,7.5-15.67,9.79-24.09c1.06-3.91,1.6-8.07,6.12-9.85c0.57-0.22,0.9-1.07,1.31-1.65
	c5.4-7.51,10.34-15.28,13.69-23.98c5.43-14.14,9.22-28.68,11.25-43.71C991.51,263.04,986.14,251.18,973.67,242.39z M693.37,189.82
	c-15.01-4.92-30.2-9.99-46.83-8.13c-3.37-7.42-3.89-14.69-0.33-22.05c0.46-0.95,1.14-1.8,1.64-2.74c1.68-3.16,0.93-5.6-2.63-6.45
	c-2.85-0.68-5.94-0.36-8.92-0.46c-0.68-0.02-1.37,0.08-2.33-0.81c2.37-0.75,4.7-1.79,7.12-2.19c12.47-2.09,24.09,0.81,34.7,7.21
	c8.34,5.03,16.19,10.88,24.33,16.42C699.43,178.61,697.36,184.48,693.37,189.82z M701.31,191.6c4.1-4.73,8.23-9.49,12.2-14.07
	c8.14,1.09,16.42,2.2,24.48,3.28C728.67,190.09,708.54,195.95,701.31,191.6z"/>
</svg>
